<?xml version="1.0" encoding="UTF-8"?>
<svg id="Layer_2" xmlns="http://www.w3.org/2000/svg" viewBox="0 0 293.1 154.84">
  <defs>
    <style>
      .cls-1 {
        fill: #000;
      }
    </style>
  </defs>
  <g id="Layer_1-2" data-name="Layer_1">
    <g>
      <path class="cls-1" d="M133.5,20.81v1.15h.5v105.82c.28-2.89.4-6.06.4-9.54V20.81h-.9Z"/>
      <path class="cls-1" d="M293.1,104.74v19.8c0,20.7-14.4,30.3-42.9,30.3h-84.91v-21.3h84.61c12.9,0,17.1-4.2,17.1-18.3v-12.9c0-14.41-4.5-18.6-17.1-18.6h-84.61v-20.11h84.61c11.1,0,15.9-3,15.9-13.8v-15.6c0-11.1-4.8-13.5-15.9-13.5h-89.4v.08h-27v1.15h.5v105.82c-1.94,20.81-11.4,27.06-35.9,27.06h-62.1c-27.9,0-36-8.1-36-36.6v-30.9l25.5-5.41v51.31h83.1V.03h24.66v-.03h2.59v.03h123.65c22.5,0,32.7,8.4,32.7,30v18c0,12.9-4.2,23.7-25.8,26.4,17.4,2.11,26.7,12.61,26.7,30.31Z"/>
    </g>
  </g>
</svg>